<svg width="20" height="20" viewBox="0 0 20 20" fill="none" xmlns="http://www.w3.org/2000/svg">
<path d="M8.78291 12.1874L7.00791 10.4124L6.12458 11.2957L8.77458 13.9457L13.7746 8.94574L12.8912 8.0624L8.78291 12.1874ZM14.4471 1.5874L18.2862 4.79157L17.2196 6.07074L13.3779 2.86824L14.4471 1.5874ZM5.55208 1.5874L6.62041 2.8674L2.78041 6.07074L1.71375 4.79074L5.55208 1.5874ZM9.99958 3.4124C5.85791 3.4124 2.49958 6.77074 2.49958 10.9124C2.49958 15.0541 5.85791 18.4124 9.99958 18.4124C14.1412 18.4124 17.4996 15.0541 17.4996 10.9124C17.4996 6.77074 14.1412 3.4124 9.99958 3.4124ZM9.99958 16.7457C6.78291 16.7457 4.16625 14.1291 4.16625 10.9124C4.16625 7.69574 6.78291 5.07907 9.99958 5.07907C13.2162 5.07907 15.8329 7.69574 15.8329 10.9124C15.8329 14.1291 13.2162 16.7457 9.99958 16.7457Z" fill="white"/>
</svg>
